<svg width="50" height="50" viewBox="0 0 50 50" fill="none" xmlns="http://www.w3.org/2000/svg">
<path fill-rule="evenodd" clip-rule="evenodd" d="M25 2.08337C12.3437 2.08337 2.08331 12.3438 2.08331 25C2.08331 37.6563 12.3437 47.9167 25 47.9167C37.6562 47.9167 47.9166 37.6563 47.9166 25C47.9166 12.3438 37.6562 2.08337 25 2.08337ZM20.4021 18.1396C20.0226 17.7467 19.8126 17.2204 19.8173 16.6742C19.8221 16.128 20.0412 15.6054 20.4274 15.2192C20.8137 14.8329 21.3362 14.6138 21.8825 14.6091C22.4287 14.6043 22.955 14.8143 23.3479 15.1938L31.6812 23.5271C32.0718 23.9178 32.2912 24.4476 32.2912 25C32.2912 25.5525 32.0718 26.0823 31.6812 26.473L23.3479 34.8063C22.955 35.1858 22.4287 35.3958 21.8825 35.391C21.3362 35.3863 20.8137 35.1672 20.4274 34.7809C20.0412 34.3946 19.8221 33.8721 19.8173 33.3259C19.8126 32.7796 20.0226 32.2534 20.4021 31.8605L27.2625 25L20.4021 18.1396Z" fill="#1F4590"/>
</svg>
