<svg width="61" height="61" viewBox="0 0 61 61" fill="none" xmlns="http://www.w3.org/2000/svg">
<g clip-path="url(#clip0_1_128)">
<path d="M1.90625 3.8125C1.40068 3.8125 0.915819 4.01334 0.558328 4.37083C0.200837 4.72832 0 5.21318 0 5.71875C0 6.22432 0.200837 6.70918 0.558328 7.06667C0.915819 7.42416 1.40068 7.625 1.90625 7.625H6.13812L7.66694 13.7517L13.3781 44.1945C13.4598 44.6313 13.6917 45.0259 14.0335 45.3099C14.3753 45.5939 14.8056 45.7496 15.25 45.75H19.0625C17.0402 45.75 15.1008 46.5533 13.6708 47.9833C12.2408 49.4133 11.4375 51.3527 11.4375 53.375C11.4375 55.3973 12.2408 57.3367 13.6708 58.7667C15.1008 60.1967 17.0402 61 19.0625 61C21.0848 61 23.0242 60.1967 24.4542 58.7667C25.8842 57.3367 26.6875 55.3973 26.6875 53.375C26.6875 51.3527 25.8842 49.4133 24.4542 47.9833C23.0242 46.5533 21.0848 45.75 19.0625 45.75H45.75C43.7277 45.75 41.7883 46.5533 40.3583 47.9833C38.9283 49.4133 38.125 51.3527 38.125 53.375C38.125 55.3973 38.9283 57.3367 40.3583 58.7667C41.7883 60.1967 43.7277 61 45.75 61C47.7723 61 49.7117 60.1967 51.1417 58.7667C52.5717 57.3367 53.375 55.3973 53.375 53.375C53.375 51.3527 52.5717 49.4133 51.1417 47.9833C49.7117 46.5533 47.7723 45.75 45.75 45.75H49.5625C50.0069 45.7496 50.4372 45.5939 50.779 45.3099C51.1208 45.0259 51.3527 44.6313 51.4344 44.1945L57.1532 13.6945C57.2047 13.4194 57.195 13.1363 57.1247 12.8653C57.0545 12.5944 56.9254 12.3423 56.7467 12.1268C56.5681 11.9114 56.3441 11.7379 56.0908 11.6188C55.8376 11.4997 55.5611 11.4378 55.2812 11.4375H11.0181L9.47406 5.25744C9.37116 4.84486 9.13327 4.47854 8.79823 4.21672C8.46318 3.9549 8.05021 3.81262 7.625 3.8125H1.90625ZM22.875 53.375C22.875 54.3861 22.4733 55.3559 21.7583 56.0708C21.0434 56.7858 20.0736 57.1875 19.0625 57.1875C18.0514 57.1875 17.0816 56.7858 16.3667 56.0708C15.6517 55.3559 15.25 54.3861 15.25 53.375C15.25 52.3639 15.6517 51.3941 16.3667 50.6792C17.0816 49.9642 18.0514 49.5625 19.0625 49.5625C20.0736 49.5625 21.0434 49.9642 21.7583 50.6792C22.4733 51.3941 22.875 52.3639 22.875 53.375ZM49.5625 53.375C49.5625 54.3861 49.1608 55.3559 48.4458 56.0708C47.7309 56.7858 46.7611 57.1875 45.75 57.1875C44.7389 57.1875 43.7691 56.7858 43.0542 56.0708C42.3392 55.3559 41.9375 54.3861 41.9375 53.375C41.9375 52.3639 42.3392 51.3941 43.0542 50.6792C43.7691 49.9642 44.7389 49.5625 45.75 49.5625C46.7611 49.5625 47.7309 49.9642 48.4458 50.6792C49.1608 51.3941 49.5625 52.3639 49.5625 53.375ZM34.3125 20.9688V26.6875H40.0312C40.5368 26.6875 41.0217 26.8883 41.3792 27.2458C41.7367 27.6033 41.9375 28.0882 41.9375 28.5938C41.9375 29.0993 41.7367 29.5842 41.3792 29.9417C41.0217 30.2992 40.5368 30.5 40.0312 30.5H34.3125V36.2188C34.3125 36.7243 34.1117 37.2092 33.7542 37.5667C33.3967 37.9242 32.9118 38.125 32.4062 38.125C31.9007 38.125 31.4158 37.9242 31.0583 37.5667C30.7008 37.2092 30.5 36.7243 30.5 36.2188V30.5H24.7812C24.2757 30.5 23.7908 30.2992 23.4333 29.9417C23.0758 29.5842 22.875 29.0993 22.875 28.5938C22.875 28.0882 23.0758 27.6033 23.4333 27.2458C23.7908 26.8883 24.2757 26.6875 24.7812 26.6875H30.5V20.9688C30.5 20.4632 30.7008 19.9783 31.0583 19.6208C31.4158 19.2633 31.9007 19.0625 32.4062 19.0625C32.9118 19.0625 33.3967 19.2633 33.7542 19.6208C34.1117 19.9783 34.3125 20.4632 34.3125 20.9688Z" fill="white"/>
</g>
<defs>
<clipPath id="clip0_1_128">
<rect width="61" height="61" fill="white"/>
</clipPath>
</defs>
</svg>
