<svg width="26" height="26" viewBox="0 0 26 26" fill="none" xmlns="http://www.w3.org/2000/svg">
<path d="M13 2.4375C7.176 2.4375 2.4375 7.176 2.4375 13C2.4375 18.824 7.176 23.5625 13 23.5625C18.824 23.5625 23.5625 18.824 23.5625 13C23.5625 7.176 18.824 2.4375 13 2.4375ZM13 4.0625C17.9449 4.0625 21.9375 8.05513 21.9375 13C21.9375 17.9449 17.9449 21.9375 13 21.9375C8.05513 21.9375 4.0625 17.9449 4.0625 13C4.0625 8.05513 8.05513 4.0625 13 4.0625ZM12.9236 8.125C10.2229 8.125 8.04862 10.2993 8.04862 13C8.04862 15.7008 10.2229 17.875 12.9236 17.875C14.8728 17.875 16.5393 16.7066 17.316 15.0564L15.8438 14.3715C15.3197 15.4846 14.2253 16.25 12.9236 16.25C11.0736 16.25 9.67362 14.8501 9.67362 13C9.67362 11.1499 11.0736 9.75 12.9236 9.75C14.2253 9.75 15.3205 10.5146 15.8438 11.6293L17.3168 10.9436C16.5384 9.29338 14.8728 8.125 12.9228 8.125H12.9236Z" fill="black" fill-opacity="0.58"/>
</svg>
