<svg width="74" height="74" viewBox="0 0 74 74" fill="none" xmlns="http://www.w3.org/2000/svg">
<path d="M59.8923 14.1265C56.8914 11.0959 53.3213 8.68813 49.387 7.04147C45.4528 5.39481 41.2319 4.54172 36.967 4.53123C32.7021 4.52073 28.4771 5.35303 24.5348 6.9803C20.5925 8.60758 17.0105 10.9978 13.9947 14.0135C10.979 17.0293 8.58878 20.6113 6.9615 24.5536C5.33423 28.4959 4.50193 32.7209 4.51243 36.9858C4.52292 41.2507 5.37601 45.4716 7.02267 49.4058C8.66934 53.3401 11.0771 56.9102 14.1077 59.9111C17.1086 62.9417 20.6787 65.3495 24.613 66.9962C28.5472 68.6428 32.7681 69.4959 37.033 69.5064C41.298 69.5169 45.523 68.6846 49.4653 67.0573C53.4076 65.43 56.9895 63.0399 60.0053 60.0241C63.0211 57.0083 65.4112 53.4264 67.0385 49.4841C68.6658 45.5418 69.4981 41.3168 69.4876 37.0518C69.4771 32.7869 68.624 28.566 66.9774 24.6318C65.3307 20.6975 62.9229 17.1274 59.8923 14.1265ZM9.25002 37.0188C9.24898 34.5628 9.57462 32.1176 10.2184 29.7474C11.2792 32.031 12.8199 34.0039 13.8678 36.3467C15.222 39.3588 18.8585 38.5234 20.4642 41.1625C21.8893 43.5054 20.3674 46.4683 21.434 48.9195C22.2087 50.6987 24.0356 51.0875 25.2959 52.3883C26.5836 53.7006 26.5562 55.4986 26.7528 57.2098C26.9746 59.2204 27.3343 61.2134 27.8295 63.1746C27.8295 63.1891 27.8295 63.205 27.8411 63.2194C17.0258 59.4212 9.25002 49.1117 9.25002 37.0188ZM37 64.7688C35.4503 64.7683 33.9033 64.6388 32.375 64.3815C32.3909 63.9898 32.3981 63.6241 32.4372 63.3698C32.7884 61.0717 33.9388 58.8242 35.4911 57.1043C37.0246 55.4075 39.1261 54.2599 40.4211 52.3348C41.6901 50.4559 42.0702 47.9266 41.547 45.7312C40.7766 42.4879 36.3699 41.4053 33.9938 39.6464C32.6279 38.6347 31.4124 37.0708 29.6188 36.9437C28.7921 36.8858 28.0998 37.0636 27.2803 36.8526C26.5287 36.6575 25.939 36.2528 25.1383 36.3583C23.6424 36.5549 22.6986 38.1534 21.0915 37.9366C19.5667 37.7328 17.9956 35.9478 17.6487 34.4953C17.2036 32.628 18.6807 32.0224 20.2633 31.8562C20.9238 31.7868 21.6652 31.7116 22.2997 31.9544C23.1351 32.2637 23.5297 33.0818 24.2798 33.4951C25.6861 34.2669 25.9708 33.0341 25.7555 31.7853C25.4332 29.9151 25.0574 29.1534 26.7253 27.8656C27.8815 26.9782 28.8701 26.3365 28.6851 24.7423C28.5753 23.8058 28.0622 23.3823 28.5406 22.4501C28.9034 21.7404 29.8992 21.1001 30.5481 20.6767C32.2233 19.584 37.7241 19.6649 35.4767 16.6067C34.8161 15.7091 33.5977 14.1048 32.4415 13.8851C30.9962 13.612 30.3545 15.2249 29.3471 15.936C28.3065 16.6717 26.2801 17.5071 25.2381 16.3696C23.8361 14.839 26.1674 14.3375 26.6834 13.268C26.9219 12.7694 26.6834 12.0771 26.2816 11.4252C26.8029 11.2055 27.3328 11.0017 27.8714 10.8139C28.209 11.0632 28.6094 11.2133 29.0277 11.2474C29.9946 11.311 30.9066 10.7878 31.7506 11.4469C32.6872 12.1696 33.3622 13.083 34.6051 13.3085C35.8076 13.5267 37.081 12.8257 37.3787 11.5943C37.5593 10.8457 37.3787 10.0551 37.2052 9.28182C42.6107 9.31293 47.8879 10.9318 52.381 13.9372C52.092 13.8273 51.7465 13.8403 51.3202 14.0383C50.4429 14.4459 49.1999 15.4837 49.0973 16.5127C48.9802 17.6805 50.703 17.8453 51.5211 17.8453C52.7496 17.8453 53.994 17.2961 53.598 15.8768C53.426 15.2611 53.1919 14.6208 52.8146 14.2335C53.7214 14.8627 54.5901 15.5451 55.4162 16.2771C55.4032 16.2901 55.3902 16.3017 55.3772 16.3162C54.5447 17.1833 53.5778 17.8699 53.0083 18.9249C52.6065 19.6678 52.1541 20.0205 51.3404 20.2127C50.8924 20.3182 50.3807 20.3573 50.0049 20.6579C48.9585 21.4817 49.554 23.4618 50.5455 24.0558C51.7986 24.8059 53.6572 24.4533 54.6025 23.3823C55.341 22.544 55.7761 21.0886 57.1043 21.09C57.6891 21.0888 58.2508 21.3178 58.6681 21.7274C59.2174 22.2969 59.109 22.8287 59.226 23.5398C59.4327 24.803 60.547 24.118 61.2249 23.4806C61.719 24.3599 62.1648 25.2656 62.5604 26.1934C61.8146 27.2673 61.222 28.438 59.4284 27.1864C58.3545 26.4362 57.694 25.3479 56.3455 25.0097C55.1676 24.7206 53.9608 25.0213 52.7973 25.2222C51.4748 25.452 49.9067 25.5531 48.9036 26.5548C47.9338 27.5202 47.4207 28.8123 46.3888 29.7821C44.3928 31.661 43.5502 33.7119 44.8423 36.3684C46.0853 38.9223 48.6854 40.3083 51.4907 40.1262C54.2469 39.9427 57.1101 38.3442 57.0306 42.3491C57.0017 43.767 57.298 44.7483 57.733 46.065C58.1363 47.2791 58.1088 48.4556 58.2013 49.7087C58.2892 51.176 58.5187 52.6315 58.8864 54.0547C56.2958 57.3902 52.9771 60.0894 49.1839 61.9463C45.3908 63.8032 41.2233 64.7686 37 64.7688Z" fill="white"/>
</svg>
