<svg width="56" height="56" viewBox="0 0 56 56" fill="none" xmlns="http://www.w3.org/2000/svg">
<path d="M28 20.71C23.986 20.71 20.7102 23.9858 20.7102 27.9999C20.7102 32.0139 23.986 35.2897 28 35.2897C32.0141 35.2897 35.2899 32.0139 35.2899 27.9999C35.2899 23.9858 32.0141 20.71 28 20.71ZM49.8641 27.9999C49.8641 24.9811 49.8914 21.9897 49.7219 18.9764C49.5524 15.4764 48.7539 12.3702 46.1946 9.81081C43.6297 7.24596 40.5289 6.45299 37.0289 6.28346C34.0102 6.11393 31.0188 6.14128 28.0055 6.14128C24.9867 6.14128 21.9953 6.11393 18.982 6.28346C15.482 6.45299 12.3758 7.25143 9.81642 9.81081C7.25158 12.3757 6.45861 15.4764 6.28908 18.9764C6.11955 21.9952 6.14689 24.9866 6.14689 27.9999C6.14689 31.0132 6.11955 34.01 6.28908 37.0233C6.45861 40.5233 7.25705 43.6296 9.81642 46.1889C12.3813 48.7538 15.482 49.5467 18.982 49.7163C22.0008 49.8858 24.9922 49.8585 28.0055 49.8585C31.0242 49.8585 34.0156 49.8858 37.0289 49.7163C40.5289 49.5467 43.6352 48.7483 46.1946 46.1889C48.7594 43.6241 49.5524 40.5233 49.7219 37.0233C49.8969 34.01 49.8641 31.0186 49.8641 27.9999ZM28 39.2163C21.793 39.2163 16.7836 34.2069 16.7836 27.9999C16.7836 21.7928 21.793 16.7835 28 16.7835C34.2071 16.7835 39.2164 21.7928 39.2164 27.9999C39.2164 34.2069 34.2071 39.2163 28 39.2163ZM39.6758 18.9436C38.2266 18.9436 37.0563 17.7733 37.0563 16.3241C37.0563 14.8749 38.2266 13.7046 39.6758 13.7046C41.125 13.7046 42.2953 14.8749 42.2953 16.3241C42.2958 16.6682 42.2283 17.009 42.0968 17.3271C41.9653 17.6451 41.7724 17.934 41.5291 18.1773C41.2857 18.4207 40.9968 18.6136 40.6788 18.7451C40.3608 18.8766 40.0199 18.9441 39.6758 18.9436Z" fill="#1F4590"/>
</svg>
