<svg width="70" height="70" viewBox="0 0 70 70" fill="none" xmlns="http://www.w3.org/2000/svg">
<path d="M43.0325 29.1666C45.85 29.1666 48.1367 31.4533 48.1367 34.2708V43.75H48.125V46.6666H21.875V37.9166H21.8808V34.2708C21.8808 31.4533 24.1646 29.1666 26.985 29.1666H43.0325Z" fill="white"/>
<path d="M64.1667 34.2708C64.1667 32.9171 63.6289 31.6188 62.6717 30.6616C61.7145 29.7044 60.4162 29.1666 59.0625 29.1666H49.2188C50.365 30.552 51.0533 32.3312 51.0533 34.2708V37.9166H51.0417V46.6666H61.9792C62.5593 46.6666 63.1157 46.4362 63.526 46.0259C63.9362 45.6157 64.1667 45.0593 64.1667 44.4791V34.2708Z" fill="white"/>
<path d="M18.9583 43.75H18.9642V34.2708L18.9904 33.6291C19.1217 31.9375 19.7779 30.3975 20.7987 29.1666H10.9375L10.5175 29.1841C9.24087 29.2895 8.05055 29.8711 7.18281 30.8134C6.31508 31.7557 5.83338 32.9898 5.83333 34.2708V44.4791C5.83333 45.6866 6.81333 46.6666 8.02083 46.6666H18.9583V43.75Z" fill="white"/>
<path d="M35 8.75C37.3206 8.75 39.5462 9.67187 41.1872 11.3128C42.8281 12.9538 43.75 15.1794 43.75 17.5C43.75 19.8206 42.8281 22.0462 41.1872 23.6872C39.5462 25.3281 37.3206 26.25 35 26.25C32.6794 26.25 30.4538 25.3281 28.8128 23.6872C27.1719 22.0462 26.25 19.8206 26.25 17.5C26.25 15.1794 27.1719 12.9538 28.8128 11.3128C30.4538 9.67187 32.6794 8.75 35 8.75Z" fill="white"/>
<path d="M53.9583 11.6666C55.8922 11.6666 57.7469 12.4349 59.1143 13.8023C60.4818 15.1698 61.25 17.0244 61.25 18.9583C61.25 20.8922 60.4818 22.7468 59.1143 24.1143C57.7469 25.4817 55.8922 26.25 53.9583 26.25C52.0245 26.25 50.1698 25.4817 48.8023 24.1143C47.4349 22.7468 46.6667 20.8922 46.6667 18.9583C46.6667 17.0244 47.4349 15.1698 48.8023 13.8023C50.1698 12.4349 52.0245 11.6666 53.9583 11.6666Z" fill="white"/>
<path d="M16.0417 11.6666C17.9755 11.6666 19.8302 12.4349 21.1977 13.8023C22.5651 15.1698 23.3333 17.0244 23.3333 18.9583C23.3333 20.8922 22.5651 22.7468 21.1977 24.1143C19.8302 25.4817 17.9755 26.25 16.0417 26.25C14.1078 26.25 12.2531 25.4817 10.8857 24.1143C9.51823 22.7468 8.75 20.8922 8.75 18.9583C8.75 17.0244 9.51823 15.1698 10.8857 13.8023C12.2531 12.4349 14.1078 11.6666 16.0417 11.6666Z" fill="white"/>
<path d="M5.83333 51.7709C5.83333 51.1907 6.0638 50.6343 6.47403 50.2241C6.88427 49.8138 7.44067 49.5834 8.02083 49.5834H61.9792C62.5593 49.5834 63.1157 49.8138 63.526 50.2241C63.9362 50.6343 64.1667 51.1907 64.1667 51.7709V53.2292C64.1667 56.13 63.0143 58.912 60.9632 60.9632C58.912 63.0144 56.13 64.1667 53.2292 64.1667H16.7708C13.87 64.1667 11.088 63.0144 9.03685 60.9632C6.98567 58.912 5.83333 56.13 5.83333 53.2292V51.7709Z" fill="white"/>
</svg>
