<svg width="26" height="26" viewBox="0 0 26 26" fill="none" xmlns="http://www.w3.org/2000/svg">
<path d="M23.0572 8.96533L16.6105 8.02842L13.7287 2.18603C13.65 2.02607 13.5205 1.89658 13.3605 1.81787C12.9594 1.61982 12.4719 1.78486 12.2713 2.18603L9.38945 8.02842L2.94278 8.96533C2.76504 8.99072 2.60254 9.07451 2.47813 9.20146C2.32772 9.35606 2.24483 9.56404 2.24769 9.77971C2.25055 9.99539 2.33891 10.2011 2.49336 10.3517L7.15762 14.8991L6.05567 21.3204C6.02982 21.4698 6.04635 21.6234 6.10338 21.7639C6.16041 21.9043 6.25565 22.026 6.3783 22.1151C6.50096 22.2042 6.64612 22.2571 6.79733 22.2679C6.94853 22.2787 7.09974 22.2469 7.23379 22.1761L13 19.1444L18.7662 22.1761C18.9236 22.2599 19.1064 22.2878 19.2816 22.2573C19.7234 22.1812 20.0205 21.7622 19.9443 21.3204L18.8424 14.8991L23.5066 10.3517C23.6336 10.2272 23.7174 10.0647 23.7428 9.88701C23.8113 9.44267 23.5016 9.03135 23.0572 8.96533Z" fill="#D0E200"/>
</svg>
